<?xml version="1.0" encoding="UTF-8" standalone="no"?>
<!DOCTYPE svg PUBLIC "-//W3C//DTD SVG 1.1//EN" "http://www.w3.org/Graphics/SVG/1.1/DTD/svg11.dtd">
<svg width="100%" height="100%" viewBox="0 0 2000 2000" version="1.1" xmlns="http://www.w3.org/2000/svg" xmlns:xlink="http://www.w3.org/1999/xlink" xml:space="preserve" xmlns:serif="http://www.serif.com/" style="fill-rule:evenodd;clip-rule:evenodd;stroke-linecap:round;stroke-linejoin:round;stroke-miterlimit:1.5;">
    <g transform="matrix(1,0,0,1,142.491,142.491)">
        <circle cx="857.509" cy="857.509" r="857.509" style="fill:rgb(68,213,255);stroke:black;stroke-width:83.33px;"/>
    </g>
    <path d="M599.27,638.066C652.94,561.395 620.435,532.958 689.781,503.759C850.787,435.967 871.461,528.083 911.679,497.92C1092.29,362.462 1143.8,535.51 1101.46,588.431C1080.7,614.382 916.069,662.115 902.92,708.139C885.404,769.442 922.019,782.607 844.526,889.161C833.17,893.892 784.627,914.118 696.434,930.588C689.669,974.558 691.684,975.227 716.058,1011.79C767.874,1089.51 624.55,1052.78 587.591,927.117C564.46,848.47 481.737,806.722 511.679,716.898C530.016,661.887 544.918,676.118 575.912,667.263" style="fill:rgb(255,198,136);stroke:black;stroke-width:83.33px;"/>
    <path d="M1358.39,912.518C1367.55,793.496 1344.54,754.33 1463.5,737.336C1482.16,734.67 1552.23,770.263 1562.77,772.372C1592.41,778.299 1593.65,769.73 1625.36,762.628C1687.54,888.681 1670.7,954.297 1708.76,979.672C1756.87,1011.75 1693.1,1083.81 1705.84,1125.66C1709.3,1137.02 1721.52,1143.97 1726.28,1154.85C1735.78,1176.56 1657.84,1227.13 1644.53,1280.4C1631.1,1334.12 1595.64,1342.99 1589.05,1344.63C1517.11,1362.62 1456.07,1327.83 1448.9,1327.12C1387.96,1321.02 1385.3,1320.68 1349.63,1271.64C1328.07,1241.99 1318,1247.71 1314.6,1210.33C1309.67,1156.08 1310.7,1156.87 1317.52,1102.3C1323.12,1057.46 1295.51,1056.7 1314.6,1014.71C1314.6,1014.71 1317.25,972.288 1317.48,968.599C1320.46,966.812 1333.27,970.159 1346.71,938.796L1311.68,944.635" style="fill:rgb(51,255,109);stroke:black;stroke-width:83.33px;"/>
    <path d="M756.934,1330.04C877.402,1284.86 851.865,1227.7 967.153,1216.17C1003.84,1212.5 1005.55,1249.78 1019.71,1274.56C1044.46,1317.89 1048.71,1314.19 1095.62,1332.96C1158.58,1413.9 1220.43,1335.5 1253.29,1417.63C1273.07,1467.08 1345.29,1481.46 1314.6,1519.82C1224.02,1633.04 1203.3,1605.51 1057.66,1601.57C815.427,1595.02 802.246,1653.76 727.737,1589.89C651.137,1524.23 622.368,1549.82 584.671,1455.58C570.076,1419.1 508.19,1458.54 482.357,1329.44C556.877,1275.01 570.086,1237.71 633.333,1303.43C638.937,1304.42 637.925,1300.03 704.38,1306.68C708.55,1307.1 739.322,1317.35 742.336,1318.36" style="fill:rgb(187,191,255);stroke:black;stroke-width:83.33px;"/>
</svg>
